<svg xmlns="http://www.w3.org/2000/svg" width="1000" height="1000" viewBox="0 0 1000 1000">
  <defs>
    <style>
      .cls-1 {
        fill: #daa502;
        fill-rule: evenodd;
      }
    </style>
  </defs>
  <path class="cls-1" d="M688,190l-65,74-296-1a65.658,65.658,0,0,0-56,54q0.5,172.5,1,345a63.057,63.057,0,0,0,54,55H675a63.015,63.015,0,0,0,33-11c15.346-10.635,24.717-27.6,27-46V375l67-85a41.841,41.841,0,0,1,5,12,54.089,54.089,0,0,1,1,13c-1.454,19.465.443,256.412,1,336A137.28,137.28,0,0,1,678,791H331A136.769,136.769,0,0,1,197,649V330c0-23.352,5.622-64.6,37-98,23.637-25.164,56.992-39.058,95-43Z"/>
  <path class="cls-1" d="M328,628L750,178l-66-44L892,68,874,278l-66-50L396,684s-13.458,8.79-28.575,10.321c-15.35,1.554-32.41-4.191-38.827-9.476-4.18-3.442-8.759-15.075-8.114-26.928C321.289,643.13,328,628,328,628Z"/>
  <path id="Shape_2_copy" data-name="Shape 2 copy" class="cls-1" d="M688,190l-65,74-296-1a65.658,65.658,0,0,0-56,54q0.5,172.5,1,345a63.057,63.057,0,0,0,54,55H675a63.015,63.015,0,0,0,33-11c15.346-10.635,24.717-27.6,27-46V375l67-85a41.841,41.841,0,0,1,5,12,54.089,54.089,0,0,1,1,13c-1.454,19.465.443,256.412,1,336A137.28,137.28,0,0,1,678,791H331A136.769,136.769,0,0,1,197,649V330c0-23.352,5.622-64.6,37-98,23.637-25.164,56.992-39.058,95-43ZM328,628L750,178l-66-44L892,68,874,278l-66-50L396,684s-13.458,8.79-28.575,10.321c-15.35,1.554-32.41-4.191-38.827-9.476-4.18-3.442-8.759-15.075-8.114-26.928C321.289,643.13,328,628,328,628Z"/>
</svg>
