<svg xmlns="http://www.w3.org/2000/svg" width="1000" height="1000" viewBox="0 0 1000 1000">
  <defs>
    <style>
      .cls-1 {
        fill: #daa502;
        fill-rule: evenodd;
      }
    </style>
  </defs>
  <path id="Shape_2_copy" data-name="Shape 2 copy" class="cls-1" d="M674.219,480.337l-1.786,378.849,71.42-1.785V480.66s32.139-3.571,66.064-48.209,25.319-116.466,25.319-116.466,1.463-67.44-57.458-129.933-76.318-58.04-141.055,0C584.944,232.475,578.447,318.3,578.447,318.3s-7.337,66.154,22.039,109.937C631.28,474.131,674.219,480.337,674.219,480.337ZM288.55,482.445l-1.785,376.741,71.42-1.785V480.66c0-7.142,62.493-1.786,96.417-46.423s23.212-267.825,23.212-267.825L418.892,168.2l1.786,242.828L356.4,412.811,358.185,168.2H290.336l1.786,244.614-71.363,1.765-1.843-248.164H165.351s-8.928,217.831,16.069,264.254S288.55,482.445,288.55,482.445Z"/>
</svg>
